<?xml version="1.0" encoding="utf-8"?>
<!-- Generator: Adobe Illustrator 23.0.3, SVG Export Plug-In . SVG Version: 6.00 Build 0)  -->
<svg version="1.1" xmlns="http://www.w3.org/2000/svg" xmlns:xlink="http://www.w3.org/1999/xlink" x="0px" y="0px"
	 viewBox="0 0 1799.6 1200.87" style="enable-background:new 0 0 1799.6 1200.87;" xml:space="preserve">
<style type="text/css">
	.st0{fill:#E3E5FC;}
	.st1{fill:#978CFF;}
	.st2{fill:#5A54FF;}
	.st3{fill:#FFFFFF;}
	.st4{fill:#FDC510;}
	.st5{fill:#A7ADFF;}
	.st6{fill:#F44E4E;}
</style>
<g id="UI">
	<g id="_x34_04_Error">
		<ellipse class="st0" cx="952.53" cy="742.03" rx="148.17" ry="20.03"/>
		<ellipse class="st0" cx="1239.99" cy="839.8" rx="148.17" ry="20.03"/>
		<path class="st1" d="M1110.65,495.57c0,28.72-1.75,53.42-5.25,74.08c-3.51,20.67-9.98,39.41-19.44,56.22
			c-11.91,20.67-27.32,36.61-46.24,47.81c-18.91,11.21-39.93,16.81-63.05,16.81c-26.62,0-50.48-7.53-71.59-22.59
			c-21.11-15.06-37-35.9-47.69-62.53c-5.43-14.54-9.42-30.61-11.95-48.21c-2.54-17.6-3.81-36.65-3.81-57.14
			c0-26.44,1.4-50.26,4.2-71.46c2.8-21.19,7.18-39.4,13.14-54.64c10.33-25.22,25.35-44.44,45.06-57.66
			c19.71-13.22,43.22-19.83,70.54-19.83c18.04,0,34.42,2.93,49.13,8.8c14.71,5.87,27.62,14.45,38.75,25.75
			c11.12,11.3,20.53,25.26,28.24,41.9C1103.99,401.77,1110.65,442.67,1110.65,495.57z M1038.66,490.31
			c0-32.05-1.93-58.28-5.78-78.69c-3.86-20.4-10.33-35.81-19.44-46.24c-9.11-10.42-21.72-15.63-37.83-15.63
			c-23.12,0-39.19,11.65-48.21,34.94c-9.02,23.29-13.53,59.2-13.53,107.71c0,32.93,1.93,59.9,5.78,80.92
			c3.85,21.02,10.33,36.91,19.44,47.68c9.1,10.77,21.45,16.16,37.04,16.16c16.11,0,28.72-5.6,37.83-16.81
			c9.1-11.21,15.5-27.23,19.18-48.08C1036.82,551.44,1038.66,524.11,1038.66,490.31z"/>
		<path class="st1" d="M1282.18,765.73v-48.87H1150.3c-16.64,0-29.12-3.76-37.44-11.3c-8.32-7.53-12.48-17.77-12.48-30.74
			c0-3.33,0.61-6.7,1.84-10.12c1.23-3.42,3.07-7,5.52-10.77c2.45-3.76,4.99-7.4,7.62-10.9c2.63-3.5,5.87-7.79,9.72-12.88
			l139.24-186.26c9.1-12.26,16.59-21.15,22.46-26.67c5.86-5.52,12.91-8.28,21.15-8.28c26.62,0,39.93,15.24,39.93,45.71v203.35h11.3
			c13.48,0,24.3,1.84,32.44,5.52c8.14,3.68,12.22,11.74,12.22,24.17c0,10.16-3.33,17.56-9.98,22.2c-6.66,4.64-16.64,6.96-29.95,6.96
			h-16.02v48.87c0,13.49-2.98,23.51-8.93,30.08c-5.95,6.57-13.93,9.85-23.9,9.85c-9.81,0-17.74-3.37-23.78-10.11
			C1285.2,788.8,1282.18,778.86,1282.18,765.73z M1169.21,658.01h112.97V505.37L1169.21,658.01z"/>
		<g>
			<ellipse class="st0" cx="662.14" cy="868.84" rx="148.17" ry="20.03"/>
			<path class="st1" d="M706.26,797.57V748.7H574.37c-16.64,0-29.12-3.76-37.44-11.3c-8.32-7.53-12.48-17.77-12.48-30.74
				c0-3.33,0.61-6.7,1.84-10.12c1.22-3.42,3.06-7,5.52-10.77c2.45-3.76,4.99-7.4,7.62-10.9c2.63-3.5,5.87-7.79,9.72-12.88
				l139.24-186.26c9.11-12.26,16.59-21.15,22.46-26.67c5.87-5.52,12.91-8.28,21.15-8.28c26.62,0,39.93,15.24,39.93,45.71v203.35
				h11.3c13.49,0,24.3,1.84,32.45,5.52c8.14,3.68,12.22,11.74,12.22,24.17c0,10.16-3.33,17.56-9.98,22.2
				c-6.66,4.64-16.64,6.96-29.95,6.96h-16.02v48.87c0,13.49-2.98,23.51-8.93,30.08c-5.96,6.57-13.92,9.85-23.91,9.85
				c-9.81,0-17.73-3.37-23.78-10.11C709.28,820.65,706.26,810.7,706.26,797.57z M593.29,689.85h112.97V537.21L593.29,689.85z"/>
		</g>
	</g>
</g>
<g id="Nature">
	<g id="Plant_8_">
		<path class="st2" d="M1367.09,650.8c1.06-6.24,2.51-12.85,8.5-17.39c7.6-5.73,20.06-6.46,30.42-4.39
			c10.35,2.08,19.68,6.56,29.91,9.55c2.75,0.8,5.91,1.48,8.56,0.44c2.68-1.04,3.96-3.5,4.85-5.78c9.81-26.24-0.57-53.76-0.4-80.18
			c-0.07-7.19,0.86-15.13,5.88-21.28c13.03-16.91,18.19-7.75,30.17-26.36c8.37-13,10.15-37.38,24.53-45.88
			c29.73-17.59,29,47.74,31.14,62.72c4.05,28.42,43.51,26.98,36.05,61.43c-3.24,14.96-13.12,27.16-19.62,40.58
			c-6.4,13.47-8.49,31,4.48,41.32c8.45,6.72,23.26,10.53,24.41,20.34c0.66,5.78-4.45,10.39-9.36,14.15
			c-12.25,9.43-25.12,18.26-38.58,26.48c-3.4,2.08-7.02,4.29-8.21,7.51c-1.64,4.4,1.75,9.27,4.24,13.85
			c9.19,16.9,5.29,35.52-6.7,49.33c-11.9,13.83-30.97,23.49-50.7,31.74c-25.38,10.66-52.2,19.51-80.3,26.42
			c-82.44,16.67-53.93-46.48-50.42-69.26C1352.33,740.51,1359.38,695.39,1367.09,650.8z"/>
		<g>
			<path class="st3" d="M1417.29,831.39c-0.22,0-0.45-0.04-0.67-0.12c-0.97-0.37-1.45-1.45-1.08-2.42l94.87-247.83
				c0.37-0.97,1.46-1.45,2.42-1.08c0.97,0.37,1.45,1.45,1.08,2.42l-94.87,247.83C1418.76,830.94,1418.05,831.39,1417.29,831.39z"/>
		</g>
		<g>
			<path class="st3" d="M1471.22,690.36c-0.65,0-1.29-0.34-1.63-0.96l-16.77-29.87c-0.51-0.9-0.19-2.04,0.71-2.55
				c0.91-0.5,2.05-0.19,2.55,0.72l16.77,29.87c0.51,0.9,0.19,2.04-0.71,2.55C1471.84,690.28,1471.53,690.36,1471.22,690.36z"/>
		</g>
		<g>
			<path class="st3" d="M1485.02,655.37c-0.71,0-1.38-0.4-1.7-1.09c-0.43-0.94-0.02-2.05,0.91-2.49l31.1-14.36
				c0.94-0.43,2.05-0.03,2.49,0.92c0.43,0.94,0.02,2.05-0.91,2.49l-31.1,14.36C1485.55,655.32,1485.28,655.37,1485.02,655.37z"/>
		</g>
	</g>
	<g id="Plant_7_">
		<path class="st4" d="M1361.75,858.55c-7.43-0.99-14.8-2.06-20.69-6.62c-3.05-2.36-5.41-7.14-2.63-9.8c1.4-1.34,3.52-1.48,5.41-1.9
			c7.29-1.62,2.21-7.63-1.87-9.62c-7.19-3.5-15.66-5.91-19.98-12.64c-0.27-0.42-0.53-0.89-0.51-1.39c0.04-0.75,0.69-1.31,1.32-1.72
			c4.29-2.78,12.55-1.17,15.13-6.2c6.3-12.29-21.14-27.42-27.68-33.74c-1.25-1.21-2.56-2.52-2.91-4.22
			c-0.69-3.3,2.64-6.22,5.96-6.82c5.08-0.91,10.3,1.3,15.34-0.29c3.97-1.25,6.08-5.5,6.45-9.41c1.12-11.76-6.1-23.27-7.21-34.87
			c-0.91-9.49,2.95-28.41,16.3-25.9c6.11,1.15,8.92,8.03,11.6,13.64c2.49,5.2,5.81,10.97,9.97,14.97c3.05,2.93,7.2,5.01,11.42,4.63
			c8.19-0.75,17.89-8.82,19.96,4.29c0.63,4.02-0.22,8.11-0.09,12.17c0.13,4.06,1.62,8.55,5.29,10.31c6.68,3.21,23.6-7.94,24.65,5.16
			c0.27,3.28-1.05,6.45-2.15,9.55c-5.31,14.99,8.62,12.28,13.71,22.32c1.83,3.61,1.64,7.98,0.39,11.83
			c-2.01,6.18-6.29,11.52-9.12,17.34c-5.75,11.82-8.85,24.77-11.08,37.65c-1.63,9.45-1.55,27.38-14.13,29.42
			c-7.76,1.26-12-10.17-15.4-15.11C1382.58,861.99,1372.7,860.01,1361.75,858.55z"/>
		<g>
			<g>
				<path class="st3" d="M1412.74,890.74c-0.77,0-1.49-0.47-1.76-1.24l-48.8-135.03c-0.35-0.97,0.15-2.05,1.13-2.4
					c0.96-0.36,2.05,0.15,2.4,1.13l48.8,135.03c0.35,0.97-0.15,2.05-1.13,2.4C1413.17,890.7,1412.96,890.74,1412.74,890.74z"/>
			</g>
			<g>
				<path class="st3" d="M1379.65,796.84c-0.17,0-0.34-0.02-0.51-0.07c-1-0.28-1.57-1.32-1.29-2.31l8.06-28.44
					c0.28-1,1.3-1.58,2.32-1.29c1,0.28,1.57,1.32,1.29,2.31l-8.06,28.44C1381.22,796.3,1380.46,796.84,1379.65,796.84z"/>
			</g>
			<g>
				<path class="st3" d="M1397.85,845.61c-0.17,0-0.34-0.02-0.51-0.07c-1-0.28-1.57-1.32-1.29-2.31l8.06-28.44
					c0.28-1,1.31-1.59,2.32-1.29c1,0.28,1.57,1.32,1.29,2.31l-8.06,28.44C1399.42,845.07,1398.66,845.61,1397.85,845.61z"/>
			</g>
			<g>
				<path class="st3" d="M1386.72,823.51c-0.18,0-0.36-0.03-0.55-0.08l-27.76-8.41c-0.99-0.3-1.55-1.35-1.25-2.34
					c0.3-0.99,1.34-1.55,2.34-1.25l27.76,8.41c0.99,0.3,1.55,1.35,1.25,2.34C1388.27,822.99,1387.53,823.51,1386.72,823.51z"/>
			</g>
		</g>
	</g>
	<path id="Plant_6_" class="st5" d="M1063.68,795.72c0.26,0.01,0.52,0.07,0.79,0.22c0.83,0.45,1.14,1.48,1.34,2.41
		c1.81,8.5,1.76,6.42,0.86,17.57c1.9-6.96,1.15-5.74,4.7-12.03c0.69-1.22,1.46-2.47,2.66-3.21c7.76-4.75,0.25,16.3-1.07,18.72
		c-4.87,8.96-14.34,11.18-23.53,7.88c-8.06-2.9-15.76-9.17-18.65-17.38c-0.26-0.74-0.45-1.67,0.1-2.23
		c0.38-0.39,0.98-0.44,1.52-0.44c4.87-0.01,9.43,2.47,13.15,5.6s6.8,6.96,10.3,10.33c2.48,2.39,7.96,2.25,11.38,2.67
		c5.82,0.7,8.12-1.55,13.17-4.53c1.1-0.65,2.3-1.24,3.58-1.23s2.63,0.82,2.87,2.07c0.14,0.75-0.12,1.51-0.44,2.2
		c-4.14,8.74-15.41,7.57-20.38,0.59c-4.74-6.65-7.79-17.73-5.52-25.71C1060.98,797.61,1062.25,795.69,1063.68,795.72z"/>
	<path id="Plant_5_" class="st5" d="M331.08,861.52c0.25,0.07,0.48,0.21,0.7,0.44c0.67,0.72,0.67,1.96,0.59,3.05
		c-0.75,10.06-0.18,7.69-4.32,20.06c3.89-7.39,2.8-6.2,8.08-12.4c1.03-1.21,2.14-2.43,3.51-2.96c8.91-3.41-4.55,18.47-6.53,20.87
		c-7.34,8.89-17.16,9.01-25.08,2.97c-6.95-5.3-12.56-14.33-12.94-24.32c-0.03-0.9,0.06-2,0.75-2.49c0.48-0.34,1.07-0.25,1.6-0.12
		c4.71,1.21,8.4,5.16,11.08,9.64c2.68,4.48,4.54,9.57,6.94,14.26c1.7,3.33,7.04,4.55,10.23,5.88c5.43,2.26,8.31,0.29,14.07-1.8
		c1.26-0.45,2.59-0.82,3.83-0.48s2.31,1.58,2.17,3.06c-0.08,0.88-0.56,1.68-1.07,2.37c-6.57,8.83-17.14,4.67-19.9-4.46
		c-2.63-8.71-2.33-21.99,2.21-30.43C327.9,862.97,329.7,861.13,331.08,861.52z"/>
	<path id="Plant_4_" class="st4" d="M836.64,727.45c0.81-8.26,0.79-15.92,3.5-23.98c0.91-2.72,2.21-5.62,4.79-6.86
		c0.49-0.24,1.07-0.4,1.56-0.18c0.43,0.19,0.7,0.62,0.92,1.05c14.04,26.9-23.64,42.03-40.83,21.8c-1.06-1.25-2.06-2.68-2.21-4.32
		c-0.27-3,2.59-5.59,5.58-5.94c2.99-0.35,5.92,1.01,8.39,2.72c6.54,4.53,10.89,11.51,15.05,18.28c-5.8-8.72-8.79-19.27-8.44-29.73
		c0.05-1.57,0.58-3.58,2.15-3.71c0.75-0.06,1.44,0.37,2.04,0.83c4.28,3.29,6.69,8.56,7.59,13.89
		C837.63,716.62,837.16,722.08,836.64,727.45z"/>
	<path id="Plant_3_" class="st4" d="M1301.64,902.55c7.05-7.26,12.86-14.61,21.52-20.16c2.92-1.87,6.33-3.6,9.68-2.72
		c0.63,0.17,1.3,0.47,1.59,1.08c0.26,0.53,0.17,1.16,0.06,1.74c-7.46,37.06-54,21.24-54.55-11.96c-0.03-2.06,0.13-4.23,1.24-5.91
		c2.04-3.08,6.67-3.27,9.71-1.2s4.73,5.73,5.72,9.36c2.62,9.6,1.35,19.78,0.05,29.61c1.26-13.01,6.51-25.53,14.81-35.27
		c1.25-1.46,3.27-2.96,4.83-1.83c0.75,0.54,1.06,1.52,1.26,2.44c1.47,6.6-0.31,13.59-3.54,19.41
		C1310.81,892.97,1306.22,897.82,1301.64,902.55z"/>
	<g id="Plant_2_">
		<path class="st6" d="M337.99,698.42c0.58-9.24,3.06-20.26,11.8-23.3c12.84-4.47,22.07,11.77,31.86,21.21
			c2.24,2.16,4.94,4.12,8.04,4.39c3.09,0.27,6.11-1.19,8.55-3.11c8.54-6.74,11.21-18.44,12.22-29.27
			c1.02-10.83,1.08-22.22,6.32-31.76c5.23-9.53,18-16.05,27.22-10.31c20.75,12.9,27.69-17.79,40.35-27.83
			c5.33-4.23,12.74-6.51,19.08-4.04c6.22,2.42,10.04,8.73,12.26,15.02c5.04,14.33,4.26,33-4.16,46.05
			c-7.92,12.27-25.52,17.15-27.74,33.53c-1.53,11.27,6.45,22.64,3.42,33.6c-2.53,9.14-11.93,14.85-15.49,23.64
			c-4.79,11.85,2.12,26.25-3.39,37.77c-3.59,7.49-11.69,11.99-15.47,19.39c-4.65,9.12-1.66,20.08-2.23,30.3
			c-1.21,21.9-21.29,42.18-43.98,40.21c-19.39-1.68-28.43-23.92-37.09-39.26C346.34,793.5,335.01,745.6,337.99,698.42z"/>
		<g>
			<path class="st3" d="M410.12,818.62c-0.16,0-0.31-0.02-0.47-0.06c-1-0.26-1.6-1.28-1.34-2.29l29.08-111.8
				c0.26-1,1.28-1.61,2.29-1.34c1,0.26,1.6,1.28,1.34,2.29l-29.08,111.8C411.71,818.06,410.95,818.62,410.12,818.62z"/>
		</g>
		<g>
			<path class="st3" d="M427.12,753.24c-0.56,0-1.12-0.25-1.49-0.73l-23.6-30.77c-0.63-0.82-0.47-2,0.35-2.63
				c0.82-0.63,2-0.47,2.63,0.35l23.6,30.77c0.63,0.82,0.47,2-0.35,2.63C427.92,753.11,427.52,753.24,427.12,753.24z"/>
		</g>
		<path class="st1" d="M388.68,882.44c-8.85-3.74-17.08-12.07-25.41-18.87c-18.18-14.86-18.82-34.05-104.18-48.27
			c-39.68-6.61-10.4-49.25-32.38-83.08c-6.94-10.68-13.64-22.5-13.11-35.23s11.36-25.79,23.97-23.95
			c7.57,1.1,13.42,6.92,19.86,11.05c6.44,4.13,15.79,6.34,21.13,0.87c-4.05-8.56-10.9-15.41-16.27-23.21
			c-5.37-7.79-9.35-17.58-6.54-26.62c4.34-13.97,16.99-5.23,22.33-10.96c7.17-7.68,5.3-28.16,10.6-38.74
			c12.43-24.81,55.93-34.4,72.17-7.56c18.8,31.07,6.71,73.7-2.41,109.01c-12.68,49.09,36.33,65.58,52.35,99.46
			c11.54,24.43,28.57,68.67,3.57,90.78C404.97,885.45,396.58,885.77,388.68,882.44z"/>
		<g>
			<path class="st3" d="M408.79,893.09c-0.68,0-1.33-0.37-1.66-1.01l-83.01-158.87c-0.48-0.92-0.12-2.05,0.79-2.53
				c0.91-0.48,2.05-0.12,2.53,0.79l83.01,158.87c0.48,0.92,0.12,2.05-0.79,2.53C409.38,893.03,409.09,893.09,408.79,893.09z"/>
		</g>
		<g>
			<path class="st3" d="M367.28,818.07c-0.33,0-0.67-0.09-0.97-0.27l-60.7-36.98c-0.88-0.54-1.16-1.69-0.63-2.58
				c0.54-0.88,1.69-1.16,2.58-0.63l60.7,36.98c0.88,0.54,1.16,1.69,0.63,2.58C368.53,817.75,367.92,818.07,367.28,818.07z"/>
		</g>
		<g>
			<path class="st3" d="M344.45,770.68c-0.33,0-0.67-0.09-0.97-0.27l-60.7-36.98c-0.88-0.54-1.16-1.69-0.63-2.58
				c0.54-0.88,1.69-1.16,2.58-0.63l60.7,36.98c0.88,0.54,1.16,1.69,0.63,2.58C345.7,770.36,345.08,770.68,344.45,770.68z"/>
		</g>
		<g>
			<path class="st3" d="M384.45,850.92c-0.12,0-0.25-0.01-0.38-0.04c-1.01-0.2-1.67-1.19-1.46-2.21l11.71-57.56
				c0.2-1.01,1.19-1.66,2.21-1.46c1.01,0.2,1.67,1.19,1.46,2.21l-11.71,57.56C386.11,850.31,385.32,850.92,384.45,850.92z"/>
		</g>
	</g>
	<path id="Plant_1_" class="st6" d="M1571.74,844.85c4.39-6.86,8.17-14.81,9.14-23.7c0.23-2.15,0.26-4.52-0.72-6.26
		c-0.85-1.51-2.28-2.22-3.67-2.61c-9.86-2.78-19.11,6.75-26.22,16.18c-12.57,16.66-23.79,35.09-33.41,54.88
		c5.76-11.84,8.79-34.55,7.42-48.47c-0.05-0.55-0.14-1.14-0.46-1.49c-0.33-0.35-0.8-0.33-1.22-0.23c-3.03,0.77-4.94,4.66-6.4,8.26
		c-4.5,11.15-8.41,24.03-11.02,36.54c1.64-7.86-3.21-17.32-7.61-22c-7.87-8.37-6.19,3.31-4.48,10.17
		c1.67,6.73,12.8,33.05,20.73,27.17c1.45-1.08,1.81-6.96,3-8.85c2.08-3.28,4.97-4.36,7.95-5.58c8-3.28,16.33-4.63,23.85-9.79
		C1557.41,863.05,1565.35,854.84,1571.74,844.85z"/>
	<path id="Plant" class="st1" d="M554.81,805.74c0.26-0.04,0.53-0.01,0.81,0.09c0.89,0.32,1.36,1.28,1.7,2.17
		c3.12,8.11,2.75,6.06,3.62,17.21c0.78-7.18,0.23-5.85,2.75-12.62c0.49-1.32,1.05-2.67,2.12-3.59c6.92-5.91,2.81,16.06,1.89,18.65
		c-3.4,9.61-12.4,13.29-22,11.48c-8.41-1.59-17.01-6.58-21.15-14.23c-0.37-0.69-0.71-1.58-0.25-2.22c0.31-0.44,0.89-0.59,1.43-0.67
		c4.8-0.77,9.7,0.95,13.87,3.46c4.17,2.51,7.81,5.8,11.8,8.58c2.83,1.97,8.21,0.97,11.66,0.84c5.86-0.22,7.77-2.81,12.29-6.54
		c0.99-0.81,2.08-1.59,3.35-1.77s2.73,0.39,3.16,1.59c0.26,0.72,0.12,1.51-0.09,2.24c-2.71,9.28-14.03,9.9-20.03,3.79
		c-5.73-5.83-10.49-16.28-9.5-24.52C552.43,808.03,553.39,805.94,554.81,805.74z"/>
</g>
</svg>
