<svg width="45" height="51" viewBox="0 0 45 51" fill="none" xmlns="http://www.w3.org/2000/svg">
<path d="M17.6129 19.896C16.1637 19.896 15.0195 21.171 15.0195 22.7265C15.0195 24.282 16.1891 25.557 17.6129 25.557C19.0621 25.557 20.2062 24.282 20.2062 22.7265C20.2317 21.171 19.0621 19.896 17.6129 19.896ZM26.893 19.896C25.4438 19.896 24.2997 21.171 24.2997 22.7265C24.2997 24.282 25.4692 25.557 26.893 25.557C28.3422 25.557 29.4863 24.282 29.4863 22.7265C29.4863 21.171 28.3422 19.896 26.893 19.896Z" fill="white"/>
<path d="M39.2816 0H5.21212C2.3391 0 0 2.346 0 5.253V39.729C0 42.636 2.3391 44.982 5.21212 44.982H34.0441L32.6965 40.2645L35.9509 43.299L39.0274 46.155L44.4937 51V5.253C44.4937 2.346 42.1546 0 39.2816 0ZM29.4676 33.303C29.4676 33.303 28.5523 32.2065 27.7895 31.2375C31.1202 30.294 32.3914 28.203 32.3914 28.203C31.349 28.8915 30.3574 29.376 29.4676 29.7075C28.1963 30.243 26.9759 30.6 25.7809 30.804C23.3401 31.263 21.1027 31.1355 19.1959 30.7785C17.7466 30.498 16.5008 30.09 15.4584 29.682C14.8736 29.4525 14.238 29.172 13.6024 28.815C13.5261 28.764 13.4498 28.7385 13.3735 28.6875C13.3227 28.662 13.2973 28.6365 13.2718 28.611C12.8142 28.356 12.5599 28.1775 12.5599 28.1775C12.5599 28.1775 13.7803 30.2175 17.0093 31.1865C16.2466 32.1555 15.3058 33.303 15.3058 33.303C9.68692 33.1245 7.55122 29.427 7.55122 29.427C7.55122 21.216 11.2124 14.5605 11.2124 14.5605C14.8736 11.8065 18.3568 11.883 18.3568 11.883L18.6111 12.189C14.0346 13.515 11.9243 15.5295 11.9243 15.5295C11.9243 15.5295 12.4837 15.2235 13.4244 14.79C16.1449 13.5915 18.306 13.26 19.1959 13.1835C19.3484 13.158 19.4755 13.1325 19.6281 13.1325C21.179 12.9285 22.9333 12.8775 24.7639 13.0815C27.1793 13.362 29.7727 14.076 32.4169 15.5295C32.4169 15.5295 30.4083 13.617 26.086 12.291L26.442 11.883C26.442 11.883 29.9252 11.8065 33.5864 14.5605C33.5864 14.5605 37.2476 21.216 37.2476 29.427C37.2476 29.427 35.0865 33.1245 29.4676 33.303Z" fill="white"/>
</svg>
