<?xml version="1.0" encoding="UTF-8"?>
<svg xmlns="http://www.w3.org/2000/svg" xmlns:xlink="http://www.w3.org/1999/xlink" viewBox="0 0 48 48" width="48px" height="48px">
<g id="surface55473376">
<path style=" stroke:none;fill-rule:nonzero;fill:rgb(48.627451%,22.745098%,92.941177%);fill-opacity:1;" d="M 31.847656 7.03125 C 31.570312 7.027344 31.300781 7.046875 31.03125 7.089844 C 29.433594 7.351562 28.03125 8.46875 27.488281 10.089844 C 27.371094 10.445312 27.265625 10.796875 27.175781 11.152344 C 25.828125 11.03125 24.699219 11.007812 24 11.007812 C 23.300781 11.007812 22.171875 11.03125 20.824219 11.152344 C 20.734375 10.796875 20.628906 10.445312 20.511719 10.09375 C 19.96875 8.472656 18.566406 7.351562 16.96875 7.089844 C 16.433594 7.003906 15.878906 7.015625 15.328125 7.128906 C 13.117188 7.597656 9.960938 8.503906 7.472656 10.523438 C 7.445312 10.546875 7.417969 10.570312 7.394531 10.59375 C 6.609375 11.328125 6.066406 12.316406 5.398438 13.710938 C 4.730469 15.105469 4.035156 16.859375 3.398438 18.859375 C 2.121094 22.863281 1.074219 27.839844 1.074219 32.769531 C 1.074219 33.027344 1.140625 33.28125 1.265625 33.503906 C 3.613281 37.667969 8.707031 39.246094 11.824219 39.875 C 13.542969 40.222656 15.316406 39.515625 16.34375 38.089844 L 17.582031 36.375 C 19.429688 36.765625 21.566406 37.019531 24 37.019531 C 26.433594 37.019531 28.570312 36.765625 30.417969 36.375 L 31.65625 38.089844 C 32.679688 39.515625 34.457031 40.21875 36.175781 39.871094 C 39.292969 39.242188 44.386719 37.664062 46.730469 33.503906 C 46.855469 33.277344 46.921875 33.027344 46.925781 32.765625 C 46.925781 27.835938 45.878906 22.859375 44.601562 18.859375 C 43.964844 16.859375 43.269531 15.105469 42.601562 13.707031 C 41.929688 12.3125 41.386719 11.324219 40.605469 10.589844 C 40.578125 10.566406 40.550781 10.546875 40.527344 10.523438 C 38.035156 8.503906 34.882812 7.597656 32.671875 7.128906 C 32.394531 7.070312 32.121094 7.039062 31.847656 7.03125 Z M 31.769531 10.03125 C 31.863281 10.035156 31.957031 10.042969 32.046875 10.0625 C 34.003906 10.476562 36.746094 11.355469 38.582031 12.820312 C 38.703125 12.945312 39.308594 13.789062 39.894531 15.003906 C 40.488281 16.246094 41.140625 17.886719 41.742188 19.769531 C 42.902344 23.402344 43.816406 27.941406 43.878906 32.300781 C 42.21875 34.824219 38.164062 36.410156 35.582031 36.929688 C 35.011719 37.046875 34.445312 36.828125 34.089844 36.335938 L 33.507812 35.53125 C 34.109375 35.328125 34.675781 35.117188 35.179688 34.902344 C 37.691406 33.835938 39.082031 32.671875 39.082031 32.671875 C 39.488281 32.324219 39.679688 31.785156 39.585938 31.257812 C 39.488281 30.730469 39.117188 30.296875 38.609375 30.117188 C 38.105469 29.9375 37.542969 30.039062 37.136719 30.386719 C 37.136719 30.386719 36.1875 31.21875 34.007812 32.144531 C 31.824219 33.070312 28.503906 34.019531 24 34.019531 C 19.496094 34.019531 16.175781 33.070312 13.992188 32.144531 C 11.8125 31.21875 10.863281 30.386719 10.863281 30.386719 C 10.597656 30.15625 10.261719 30.023438 9.90625 30.015625 C 9.269531 30 8.691406 30.394531 8.46875 30.992188 C 8.246094 31.589844 8.425781 32.265625 8.917969 32.671875 C 8.917969 32.671875 10.308594 33.835938 12.820312 34.902344 C 13.324219 35.117188 13.890625 35.328125 14.492188 35.53125 L 13.910156 36.339844 C 13.554688 36.832031 12.988281 37.050781 12.417969 36.9375 C 9.832031 36.414062 5.777344 34.828125 4.121094 32.304688 C 4.183594 27.945312 5.097656 23.40625 6.257812 19.773438 C 6.855469 17.890625 7.511719 16.246094 8.105469 15.007812 C 8.691406 13.789062 9.296875 12.949219 9.417969 12.824219 C 11.25 11.359375 13.996094 10.480469 15.949219 10.066406 C 16.699219 9.910156 17.417969 10.304688 17.667969 11.046875 C 17.730469 11.238281 17.777344 11.414062 17.828125 11.59375 C 15.589844 12.039062 13.097656 12.808594 10.734375 14.210938 C 10.253906 14.476562 9.957031 14.980469 9.957031 15.527344 C 9.957031 16.074219 10.257812 16.578125 10.738281 16.84375 C 11.21875 17.105469 11.804688 17.085938 12.265625 16.789062 C 16.621094 14.199219 22.007812 14.007812 24 14.007812 C 25.992188 14.007812 31.378906 14.199219 35.734375 16.789062 C 36.195312 17.085938 36.78125 17.105469 37.261719 16.84375 C 37.742188 16.578125 38.042969 16.074219 38.042969 15.527344 C 38.042969 14.980469 37.746094 14.476562 37.265625 14.210938 C 34.902344 12.808594 32.40625 12.039062 30.171875 11.59375 C 30.222656 11.414062 30.269531 11.234375 30.332031 11.042969 C 30.546875 10.394531 31.125 10.011719 31.769531 10.03125 Z M 17.535156 22 C 15.628906 22.007812 14.085938 23.78125 14.085938 25.960938 C 14.085938 28.140625 15.628906 29.910156 17.535156 29.917969 C 19.441406 29.910156 20.984375 28.140625 20.984375 25.960938 C 20.984375 23.78125 19.441406 22.007812 17.535156 22 Z M 30.445312 22 C 28.511719 22 26.945312 23.789062 26.945312 26 C 26.945312 28.210938 28.511719 30 30.445312 30 C 32.378906 30 33.945312 28.210938 33.945312 26 C 33.945312 23.789062 32.378906 22 30.445312 22 Z M 30.445312 22 "/>
</g>
</svg>
