<svg width="1440" height="464" viewBox="0 0 1440 464" fill="none" xmlns="http://www.w3.org/2000/svg">
<rect width="1440" height="464.25" fill="#0D3344"/>
<g opacity="0.5">
<path fill-rule="evenodd" clip-rule="evenodd" d="M1338.97 153.263C1337.3 153.263 1335.94 151.914 1335.94 150.249C1335.94 148.585 1337.3 147.236 1338.97 147.236C1340.64 147.236 1342 148.585 1342 150.249C1342 151.914 1340.64 153.263 1338.97 153.263Z" fill="#FCFCFC"/>
<path fill-rule="evenodd" clip-rule="evenodd" d="M1338.97 132.169C1337.3 132.169 1335.94 130.819 1335.94 129.155C1335.94 127.491 1337.3 126.142 1338.97 126.142C1340.64 126.142 1342 127.491 1342 129.155C1342 130.819 1340.64 132.169 1338.97 132.169Z" fill="#FCFCFC"/>
<path fill-rule="evenodd" clip-rule="evenodd" d="M1338.97 111.075C1337.3 111.075 1335.94 109.726 1335.94 108.062C1335.94 106.398 1337.3 105.049 1338.97 105.049C1340.64 105.049 1342 106.398 1342 108.062C1342 109.726 1340.64 111.075 1338.97 111.075Z" fill="#FCFCFC"/>
<path fill-rule="evenodd" clip-rule="evenodd" d="M1338.97 89.9814C1337.3 89.9814 1335.94 88.6322 1335.94 86.968C1335.94 85.3037 1337.3 83.9546 1338.97 83.9546C1340.64 83.9546 1342 85.3037 1342 86.968C1342 88.6322 1340.64 89.9814 1338.97 89.9814Z" fill="#FCFCFC"/>
<path fill-rule="evenodd" clip-rule="evenodd" d="M1338.97 68.8879C1337.3 68.8879 1335.94 67.5387 1335.94 65.8745C1335.94 64.2102 1337.3 62.8611 1338.97 62.8611C1340.64 62.8611 1342 64.2102 1342 65.8745C1342 67.5387 1340.64 68.8879 1338.97 68.8879Z" fill="#FCFCFC"/>
<path fill-rule="evenodd" clip-rule="evenodd" d="M1338.97 47.7939C1337.3 47.7939 1335.94 46.4447 1335.94 44.7805C1335.94 43.1162 1337.3 41.7671 1338.97 41.7671C1340.64 41.7671 1342 43.1162 1342 44.7805C1342 46.4447 1340.64 47.7939 1338.97 47.7939Z" fill="#FCFCFC"/>
<path fill-rule="evenodd" clip-rule="evenodd" d="M1319.07 153.263C1317.4 153.263 1316.04 151.914 1316.04 150.249C1316.04 148.585 1317.4 147.236 1319.07 147.236C1320.74 147.236 1322.1 148.585 1322.1 150.249C1322.1 151.914 1320.74 153.263 1319.07 153.263Z" fill="#FCFCFC"/>
<path fill-rule="evenodd" clip-rule="evenodd" d="M1319.07 132.169C1317.4 132.169 1316.04 130.819 1316.04 129.155C1316.04 127.491 1317.4 126.142 1319.07 126.142C1320.74 126.142 1322.1 127.491 1322.1 129.155C1322.1 130.819 1320.74 132.169 1319.07 132.169Z" fill="#FCFCFC"/>
<path fill-rule="evenodd" clip-rule="evenodd" d="M1319.07 111.075C1317.4 111.075 1316.04 109.726 1316.04 108.062C1316.04 106.398 1317.4 105.049 1319.07 105.049C1320.74 105.049 1322.1 106.398 1322.1 108.062C1322.1 109.726 1320.74 111.075 1319.07 111.075Z" fill="#FCFCFC"/>
<path fill-rule="evenodd" clip-rule="evenodd" d="M1319.07 89.9814C1317.4 89.9814 1316.04 88.6322 1316.04 86.968C1316.04 85.3037 1317.4 83.9546 1319.07 83.9546C1320.74 83.9546 1322.1 85.3037 1322.1 86.968C1322.1 88.6322 1320.74 89.9814 1319.07 89.9814Z" fill="#FCFCFC"/>
<path fill-rule="evenodd" clip-rule="evenodd" d="M1319.07 68.8879C1317.4 68.8879 1316.04 67.5387 1316.04 65.8745C1316.04 64.2102 1317.4 62.8611 1319.07 62.8611C1320.74 62.8611 1322.1 64.2102 1322.1 65.8745C1322.1 67.5387 1320.74 68.8879 1319.07 68.8879Z" fill="#FCFCFC"/>
<path fill-rule="evenodd" clip-rule="evenodd" d="M1319.07 47.7939C1317.4 47.7939 1316.04 46.4447 1316.04 44.7805C1316.04 43.1162 1317.4 41.7671 1319.07 41.7671C1320.74 41.7671 1322.1 43.1162 1322.1 44.7805C1322.1 46.4447 1320.74 47.7939 1319.07 47.7939Z" fill="#FCFCFC"/>
<path fill-rule="evenodd" clip-rule="evenodd" d="M1299.16 153.263C1297.49 153.263 1296.14 151.914 1296.14 150.249C1296.14 148.585 1297.49 147.236 1299.16 147.236C1300.84 147.236 1302.19 148.585 1302.19 150.249C1302.19 151.914 1300.84 153.263 1299.16 153.263Z" fill="#FCFCFC"/>
<path fill-rule="evenodd" clip-rule="evenodd" d="M1299.16 132.169C1297.49 132.169 1296.14 130.819 1296.14 129.155C1296.14 127.491 1297.49 126.142 1299.16 126.142C1300.84 126.142 1302.19 127.491 1302.19 129.155C1302.19 130.819 1300.84 132.169 1299.16 132.169Z" fill="#FCFCFC"/>
<path fill-rule="evenodd" clip-rule="evenodd" d="M1299.16 111.075C1297.49 111.075 1296.14 109.726 1296.14 108.062C1296.14 106.398 1297.49 105.049 1299.16 105.049C1300.84 105.049 1302.19 106.398 1302.19 108.062C1302.19 109.726 1300.84 111.075 1299.16 111.075Z" fill="#FCFCFC"/>
<path fill-rule="evenodd" clip-rule="evenodd" d="M1299.16 89.9814C1297.49 89.9814 1296.14 88.6322 1296.14 86.968C1296.14 85.3037 1297.49 83.9546 1299.16 83.9546C1300.84 83.9546 1302.19 85.3037 1302.19 86.968C1302.19 88.6322 1300.84 89.9814 1299.16 89.9814Z" fill="#FCFCFC"/>
<path fill-rule="evenodd" clip-rule="evenodd" d="M1299.16 68.8879C1297.49 68.8879 1296.14 67.5387 1296.14 65.8745C1296.14 64.2102 1297.49 62.8611 1299.16 62.8611C1300.84 62.8611 1302.19 64.2102 1302.19 65.8745C1302.19 67.5387 1300.84 68.8879 1299.16 68.8879Z" fill="#FCFCFC"/>
<path fill-rule="evenodd" clip-rule="evenodd" d="M1299.16 47.7939C1297.49 47.7939 1296.14 46.4447 1296.14 44.7805C1296.14 43.1162 1297.49 41.7671 1299.16 41.7671C1300.84 41.7671 1302.19 43.1162 1302.19 44.7805C1302.19 46.4447 1300.84 47.7939 1299.16 47.7939Z" fill="#FCFCFC"/>
<path fill-rule="evenodd" clip-rule="evenodd" d="M1278.4 153.263C1276.72 153.263 1275.37 151.914 1275.37 150.249C1275.37 148.585 1276.72 147.236 1278.4 147.236C1280.07 147.236 1281.43 148.585 1281.43 150.249C1281.43 151.914 1280.07 153.263 1278.4 153.263Z" fill="#FCFCFC"/>
<path fill-rule="evenodd" clip-rule="evenodd" d="M1278.4 132.169C1276.72 132.169 1275.37 130.819 1275.37 129.155C1275.37 127.491 1276.72 126.142 1278.4 126.142C1280.07 126.142 1281.43 127.491 1281.43 129.155C1281.43 130.819 1280.07 132.169 1278.4 132.169Z" fill="#FCFCFC"/>
<path fill-rule="evenodd" clip-rule="evenodd" d="M1278.4 111.075C1276.72 111.075 1275.37 109.726 1275.37 108.062C1275.37 106.398 1276.72 105.049 1278.4 105.049C1280.07 105.049 1281.43 106.398 1281.43 108.062C1281.43 109.726 1280.07 111.075 1278.4 111.075Z" fill="#FCFCFC"/>
<path fill-rule="evenodd" clip-rule="evenodd" d="M1278.4 89.9814C1276.72 89.9814 1275.37 88.6322 1275.37 86.968C1275.37 85.3037 1276.72 83.9546 1278.4 83.9546C1280.07 83.9546 1281.43 85.3037 1281.43 86.968C1281.43 88.6322 1280.07 89.9814 1278.4 89.9814Z" fill="#FCFCFC"/>
<path fill-rule="evenodd" clip-rule="evenodd" d="M1278.4 68.8879C1276.72 68.8879 1275.37 67.5387 1275.37 65.8745C1275.37 64.2102 1276.72 62.8611 1278.4 62.8611C1280.07 62.8611 1281.43 64.2102 1281.43 65.8745C1281.43 67.5387 1280.07 68.8879 1278.4 68.8879Z" fill="#FCFCFC"/>
<path fill-rule="evenodd" clip-rule="evenodd" d="M1278.4 47.7939C1276.72 47.7939 1275.37 46.4447 1275.37 44.7805C1275.37 43.1162 1276.72 41.7671 1278.4 41.7671C1280.07 41.7671 1281.43 43.1162 1281.43 44.7805C1281.43 46.4447 1280.07 47.7939 1278.4 47.7939Z" fill="#FCFCFC"/>
<path fill-rule="evenodd" clip-rule="evenodd" d="M1258.49 153.263C1256.82 153.263 1255.46 151.914 1255.46 150.249C1255.46 148.585 1256.82 147.236 1258.49 147.236C1260.17 147.236 1261.52 148.585 1261.52 150.249C1261.52 151.914 1260.17 153.263 1258.49 153.263Z" fill="#FCFCFC"/>
<path fill-rule="evenodd" clip-rule="evenodd" d="M1258.49 132.169C1256.82 132.169 1255.46 130.819 1255.46 129.155C1255.46 127.491 1256.82 126.142 1258.49 126.142C1260.17 126.142 1261.52 127.491 1261.52 129.155C1261.52 130.819 1260.17 132.169 1258.49 132.169Z" fill="#FCFCFC"/>
<path fill-rule="evenodd" clip-rule="evenodd" d="M1258.49 111.075C1256.82 111.075 1255.46 109.726 1255.46 108.062C1255.46 106.398 1256.82 105.049 1258.49 105.049C1260.17 105.049 1261.52 106.398 1261.52 108.062C1261.52 109.726 1260.17 111.075 1258.49 111.075Z" fill="#FCFCFC"/>
<path fill-rule="evenodd" clip-rule="evenodd" d="M1258.49 89.9814C1256.82 89.9814 1255.46 88.6322 1255.46 86.968C1255.46 85.3037 1256.82 83.9546 1258.49 83.9546C1260.17 83.9546 1261.52 85.3037 1261.52 86.968C1261.52 88.6322 1260.17 89.9814 1258.49 89.9814Z" fill="#FCFCFC"/>
<path fill-rule="evenodd" clip-rule="evenodd" d="M1258.49 68.8879C1256.82 68.8879 1255.46 67.5387 1255.46 65.8745C1255.46 64.2102 1256.82 62.8611 1258.49 62.8611C1260.17 62.8611 1261.52 64.2102 1261.52 65.8745C1261.52 67.5387 1260.17 68.8879 1258.49 68.8879Z" fill="#FCFCFC"/>
<path fill-rule="evenodd" clip-rule="evenodd" d="M1258.49 47.7939C1256.82 47.7939 1255.46 46.4447 1255.46 44.7805C1255.46 43.1162 1256.82 41.7671 1258.49 41.7671C1260.17 41.7671 1261.52 43.1162 1261.52 44.7805C1261.52 46.4447 1260.17 47.7939 1258.49 47.7939Z" fill="#FCFCFC"/>
<path fill-rule="evenodd" clip-rule="evenodd" d="M1238.59 153.263C1236.92 153.263 1235.56 151.914 1235.56 150.249C1235.56 148.585 1236.92 147.236 1238.59 147.236C1240.26 147.236 1241.62 148.585 1241.62 150.249C1241.62 151.914 1240.26 153.263 1238.59 153.263Z" fill="#FCFCFC"/>
<path fill-rule="evenodd" clip-rule="evenodd" d="M1238.59 132.169C1236.92 132.169 1235.56 130.819 1235.56 129.155C1235.56 127.491 1236.92 126.142 1238.59 126.142C1240.26 126.142 1241.62 127.491 1241.62 129.155C1241.62 130.819 1240.26 132.169 1238.59 132.169Z" fill="#FCFCFC"/>
<path fill-rule="evenodd" clip-rule="evenodd" d="M1238.59 111.075C1236.92 111.075 1235.56 109.726 1235.56 108.062C1235.56 106.398 1236.92 105.049 1238.59 105.049C1240.26 105.049 1241.62 106.398 1241.62 108.062C1241.62 109.726 1240.26 111.075 1238.59 111.075Z" fill="#FCFCFC"/>
<path fill-rule="evenodd" clip-rule="evenodd" d="M1238.59 89.9814C1236.92 89.9814 1235.56 88.6322 1235.56 86.968C1235.56 85.3037 1236.92 83.9546 1238.59 83.9546C1240.26 83.9546 1241.62 85.3037 1241.62 86.968C1241.62 88.6322 1240.26 89.9814 1238.59 89.9814Z" fill="#FCFCFC"/>
<path fill-rule="evenodd" clip-rule="evenodd" d="M1238.59 68.8879C1236.92 68.8879 1235.56 67.5387 1235.56 65.8745C1235.56 64.2102 1236.92 62.8611 1238.59 62.8611C1240.26 62.8611 1241.62 64.2102 1241.62 65.8745C1241.62 67.5387 1240.26 68.8879 1238.59 68.8879Z" fill="#FCFCFC"/>
<path fill-rule="evenodd" clip-rule="evenodd" d="M1238.59 47.7939C1236.92 47.7939 1235.56 46.4447 1235.56 44.7805C1235.56 43.1162 1236.92 41.7671 1238.59 41.7671C1240.26 41.7671 1241.62 43.1162 1241.62 44.7805C1241.62 46.4447 1240.26 47.7939 1238.59 47.7939Z" fill="#FCFCFC"/>
<circle cx="1052.66" cy="41.4302" r="44.7985" stroke="#E9F3FF" stroke-width="6.73662"/>
<circle r="19.1994" transform="matrix(1 0 0 -1 1235.22 343.905)" stroke="#E9F3FF" stroke-width="6.73662"/>
<circle cx="293.445" cy="153.932" r="15.1574" stroke="white" stroke-width="6.73662"/>
<mask id="path-41-inside-1" fill="white">
<path d="M241.404 348.842L135.295 287.58C132.246 285.822 129.718 283.285 127.971 280.23C126.223 277.174 125.318 273.71 125.348 270.19C125.378 266.67 126.342 263.222 128.142 260.197C129.942 257.172 132.512 254.679 135.591 252.973C155.684 241.818 172.368 225.413 183.86 205.511L190.396 194.19C196.787 183.122 207.312 175.045 219.658 171.737C232.003 168.429 245.157 170.161 256.226 176.551L277.093 188.599C288.161 194.989 296.238 205.515 299.546 217.86C302.854 230.206 301.122 243.36 294.732 254.428L288.196 265.749C276.708 285.645 270.83 308.308 271.227 331.282C271.289 334.801 270.415 338.274 268.695 341.345C266.975 344.416 264.471 346.975 261.438 348.761C258.405 350.547 254.952 351.496 251.432 351.51C247.912 351.524 244.452 350.604 241.404 348.842ZM205.398 348.921C192.415 355.337 180.712 355.536 170.278 349.512C159.845 343.488 154.165 333.253 153.23 318.802"/>
</mask>
<path d="M135.295 287.58L138.295 282.384L138.293 282.383L135.295 287.58ZM135.591 252.973L138.499 258.221L138.503 258.218L135.591 252.973ZM183.86 205.511L189.056 208.511L189.056 208.511L183.86 205.511ZM256.226 176.551L259.226 171.355L256.226 176.551ZM294.732 254.428L299.928 257.428L294.732 254.428ZM271.227 331.282L265.228 331.386L265.228 331.388L271.227 331.282ZM208.056 354.3C211.027 352.832 212.245 349.234 210.777 346.263C209.309 343.292 205.71 342.074 202.74 343.542L208.056 354.3ZM159.217 318.414C159.003 315.108 156.149 312.6 152.842 312.815C149.536 313.029 147.029 315.883 147.243 319.19L159.217 318.414ZM244.404 343.646L138.295 282.384L132.295 292.776L238.404 354.038L244.404 343.646ZM138.293 282.383C136.164 281.155 134.399 279.384 133.179 277.251L122.763 283.209C125.038 287.186 128.328 290.488 132.297 292.778L138.293 282.383ZM133.179 277.251C131.959 275.118 131.327 272.699 131.348 270.241L119.348 270.139C119.309 274.721 120.487 279.231 122.763 283.209L133.179 277.251ZM131.348 270.241C131.369 267.784 132.042 265.376 133.299 263.264L122.986 257.129C120.643 261.067 119.388 265.557 119.348 270.139L131.348 270.241ZM133.299 263.264C134.555 261.152 136.35 259.412 138.499 258.221L132.683 247.724C128.675 249.945 125.328 253.191 122.986 257.129L133.299 263.264ZM138.503 258.218C159.547 246.536 177.021 229.355 189.056 208.511L178.664 202.51C167.716 221.471 151.821 237.1 132.679 247.727L138.503 258.218ZM189.056 208.511L195.592 197.19L185.2 191.19L178.664 202.511L189.056 208.511ZM195.592 197.19C201.187 187.5 210.402 180.429 221.211 177.533L218.105 165.941C204.222 169.661 192.386 178.744 185.2 191.19L195.592 197.19ZM221.211 177.533C232.019 174.637 243.535 176.153 253.226 181.747L259.226 171.355C246.779 164.169 231.987 162.222 218.105 165.941L221.211 177.533ZM253.226 181.747L274.093 193.795L280.093 183.403L259.226 171.355L253.226 181.747ZM274.093 193.795C283.783 199.39 290.854 208.605 293.75 219.413L305.341 216.308C301.622 202.425 292.539 190.589 280.093 183.403L274.093 193.795ZM293.75 219.413C296.646 230.222 295.13 241.738 289.535 251.428L299.928 257.428C307.114 244.982 309.061 230.19 305.341 216.308L293.75 219.413ZM289.535 251.428L283 262.749L293.392 268.749L299.928 257.428L289.535 251.428ZM283 262.749C270.969 283.586 264.812 307.321 265.228 331.386L277.226 331.178C276.848 309.295 282.447 287.705 293.392 268.749L283 262.749ZM265.228 331.388C265.271 333.845 264.661 336.269 263.461 338.413L273.93 344.277C276.169 340.279 277.307 335.758 277.226 331.177L265.228 331.388ZM263.461 338.413C262.26 340.557 260.511 342.344 258.393 343.591L264.482 353.932C268.431 351.607 271.691 348.275 273.93 344.277L263.461 338.413ZM258.393 343.591C256.276 344.838 253.865 345.5 251.408 345.51L251.456 357.51C256.038 357.492 260.534 356.257 264.482 353.932L258.393 343.591ZM251.408 345.51C248.95 345.52 246.534 344.877 244.407 343.648L238.402 354.037C242.369 356.33 246.874 357.529 251.456 357.51L251.408 345.51ZM202.74 343.542C191.136 349.276 181.606 349.124 173.278 344.316L167.278 354.708C179.817 361.947 193.693 361.398 208.056 354.3L202.74 343.542ZM173.278 344.316C164.95 339.507 160.053 331.33 159.217 318.414L147.243 319.19C148.277 335.177 154.739 347.469 167.278 354.708L173.278 344.316Z" fill="#E9F3FF" mask="url(#path-41-inside-1)"/>
</g>
</svg>
