<?xml version="1.0" encoding="UTF-8"?>
<svg xmlns="http://www.w3.org/2000/svg" xmlns:xlink="http://www.w3.org/1999/xlink" viewBox="0 0 48 48" width="48px" height="48px">
<g id="surface57254791">
<path style=" stroke:none;fill-rule:nonzero;fill:rgb(0%,0%,0%);fill-opacity:1;" d="M 24 4 C 12.972656 4 4 12.972656 4 24 C 4 35.027344 12.972656 44 24 44 C 35.027344 44 44 35.027344 44 24 C 44 12.972656 35.027344 4 24 4 Z M 24 7 C 33.40625 7 41 14.59375 41 24 C 41 33.40625 33.40625 41 24 41 C 14.59375 41 7 33.40625 7 24 C 7 14.59375 14.59375 7 24 7 Z M 24 14 C 22.894531 14 22 14.894531 22 16 C 22 17.105469 22.894531 18 24 18 C 25.105469 18 26 17.105469 26 16 C 26 14.894531 25.105469 14 24 14 Z M 23.976562 20.980469 C 23.148438 20.992188 22.488281 21.671875 22.5 22.5 L 22.5 33.5 C 22.492188 34.039062 22.777344 34.542969 23.242188 34.816406 C 23.710938 35.089844 24.289062 35.089844 24.757812 34.816406 C 25.222656 34.542969 25.507812 34.039062 25.5 33.5 L 25.5 22.5 C 25.503906 22.09375 25.347656 21.703125 25.058594 21.417969 C 24.773438 21.128906 24.382812 20.972656 23.976562 20.980469 Z M 23.976562 20.980469 "/>
</g>
</svg>
