<svg width="65" height="65" viewBox="0 0 65 65" fill="none" xmlns="http://www.w3.org/2000/svg">
<path d="M32.218 0C23.4681 0 22.3709 0.0372294 18.9345 0.19442C15.5053 0.351322 13.1633 0.897642 11.1139 1.69629C8.99529 2.52207 7.19857 3.62703 5.40751 5.42337C3.61636 7.21971 2.51466 9.02192 1.6914 11.1468C0.894906 13.2021 0.350385 15.551 0.193752 18.9904C0.037024 22.4369 0 23.5373 0 32.3131C0 41.0886 0.037024 42.1891 0.193752 45.6356C0.350385 49.075 0.894906 51.4239 1.6914 53.4792C2.51475 55.6041 3.61645 57.4061 5.40751 59.2026C7.19867 60.999 8.99529 62.1039 11.1139 62.9297C13.1633 63.7284 15.5053 64.2746 18.9345 64.4316C22.3709 64.5888 23.4681 64.626 32.218 64.626C40.9678 64.626 42.065 64.5888 45.5014 64.4316C48.9306 64.2747 51.2726 63.7284 53.3219 62.9297C55.4405 62.1039 57.2372 60.999 59.0285 59.2026C60.8195 57.4061 61.9212 55.6041 62.7446 53.4792C63.5409 51.4239 64.0856 49.075 64.2421 45.6356C64.3988 42.1891 64.4359 41.0886 64.4359 32.3131C64.4359 23.5373 64.3988 22.4369 64.2421 18.9904C64.0856 15.551 63.5409 13.2021 62.7446 11.1468C61.9212 9.02192 60.8195 7.21971 59.0285 5.42337C57.2372 3.62703 55.4405 2.52207 53.3219 1.69629C51.2726 0.897642 48.9306 0.351322 45.5014 0.19442C42.065 0.0372294 40.9678 0 32.218 0ZM32.218 5.82212C40.8205 5.82212 41.8395 5.85512 45.2368 6.01058C48.378 6.1542 50.0839 6.68061 51.2191 7.12313C52.7231 7.70937 53.7963 8.40951 54.9236 9.54025C56.0511 10.671 56.7492 11.7475 57.3337 13.2557C57.7749 14.3943 58.2998 16.1053 58.443 19.2558C58.598 22.6631 58.6309 23.6851 58.6309 32.313C58.6309 40.9409 58.598 41.9629 58.443 45.3702C58.2998 48.5208 57.7749 50.2317 57.3337 51.3702C56.7492 52.8786 56.0511 53.955 54.9236 55.0857C53.7963 56.2165 52.723 56.9166 51.2192 57.5029C50.0839 57.9454 48.3779 58.4718 45.2368 58.6154C41.8401 58.7709 40.8211 58.8039 32.2179 58.8039C23.6148 58.8039 22.596 58.7709 19.1991 58.6153C16.0578 58.4718 14.352 57.9454 13.2168 57.5029C11.7128 56.9166 10.6396 56.2165 9.51228 55.0857C8.38487 53.955 7.68669 52.8785 7.10217 51.3703C6.66096 50.2317 6.13619 48.5207 5.99289 45.3702C5.83789 41.9629 5.80499 40.9409 5.80499 32.313C5.80499 23.6851 5.83789 22.6631 5.99289 19.2558C6.13619 16.1052 6.66096 14.3943 7.10217 13.2558C7.68669 11.7474 8.38487 10.671 9.51219 9.54035C10.6396 8.40951 11.7129 7.70937 13.2167 7.12313C14.352 6.68061 16.0579 6.1542 19.1991 6.01058C22.5964 5.85512 23.6154 5.82212 32.2179 5.82212" fill="white"/>
<path d="M32.2182 43.0844C26.2869 43.0844 21.4788 38.2621 21.4788 32.3135C21.4788 26.3647 26.2869 21.5424 32.2182 21.5424C38.1493 21.5424 42.9575 26.3647 42.9575 32.3135C42.9575 38.2621 38.1493 43.0844 32.2182 43.0844ZM32.2182 15.7202C23.0809 15.7202 15.6738 23.1492 15.6738 32.3135C15.6738 41.4776 23.0809 48.9065 32.2182 48.9065C41.3554 48.9065 48.7625 41.4776 48.7625 32.3135C48.7625 23.1492 41.3554 15.7202 32.2182 15.7202ZM53.2824 15.0646C53.2824 17.2062 51.5513 18.9422 49.4161 18.9422C47.281 18.9422 45.55 17.2062 45.55 15.0646C45.55 12.9231 47.281 11.187 49.4161 11.187C51.5513 11.187 53.2824 12.9231 53.2824 15.0646Z" fill="white"/>
</svg>
