<svg width="107" height="22" viewBox="0 0 107 22" fill="none" xmlns="http://www.w3.org/2000/svg">
<path d="M12.9421 7.848C13.3501 5.928 11.2381 4.392 8.33413 4.392C7.25413 4.392 6.22213 4.584 5.57413 5.04L5.11813 4.512H2.93413L0.078125 18.024H3.29413L5.45413 7.848C5.59813 7.176 6.77413 6.624 7.85413 6.624C8.91013 6.624 9.84613 7.176 9.70213 7.848L7.54213 18.024H10.7821L12.9421 7.848ZM23.3062 13.824L19.8982 14.52L19.8262 14.88C19.6822 15.552 18.7702 16.104 17.7142 16.104C16.6342 16.104 15.9862 15.552 16.1302 14.88L16.2502 14.352C19.1302 13.44 21.0502 12.744 22.4422 11.736C23.6902 10.776 24.4102 9.672 24.7702 7.968C25.2742 5.64 23.2582 4.224 20.3782 4.224C17.4982 4.224 14.8342 5.784 14.4262 7.68L12.8902 14.88C12.4822 16.776 14.3782 18.336 17.2582 18.336C20.1382 18.336 22.6822 16.776 23.0902 14.88L23.3062 13.824ZM21.4822 8.064C21.2902 8.976 20.9542 9.672 20.1142 10.32C19.3702 10.824 18.4342 11.304 16.7782 11.832L17.6662 7.68C17.8102 7.032 18.7702 6.456 19.8982 6.456C20.9542 6.456 21.7462 6.864 21.4822 8.064ZM36.7016 7.68C37.1096 5.784 35.1176 4.224 32.2376 4.224C29.3576 4.224 26.6936 5.784 26.2856 7.68L24.7496 14.88C24.3416 16.776 26.3576 18.336 29.2376 18.336C32.1176 18.336 34.7576 16.776 35.1656 14.88L36.7016 7.68ZM31.9016 14.88C31.7576 15.552 30.7496 16.104 29.6936 16.104C28.5656 16.104 27.8456 15.552 27.9896 14.88L29.5256 7.68C29.6696 7.032 30.6296 6.456 31.7576 6.456C32.8136 6.456 33.5816 7.032 33.4376 7.68L31.9016 14.88ZM48.6809 8.328H43.0169L42.5849 10.416H44.9849L44.0489 14.832C43.8809 15.528 42.7769 16.056 41.7209 16.056C40.6409 16.056 39.7289 15.528 39.8969 14.832L42.2009 3.936C42.3449 3.24 43.3289 2.712 44.4089 2.712C45.4649 2.712 46.2569 3.24 46.1129 3.936L45.9689 4.632H49.2089L49.3529 3.936C49.7609 2.016 47.7689 0.48 44.8889 0.48C42.0089 0.48 39.3449 2.016 38.9369 3.936L36.6329 14.832C36.2249 16.752 38.3849 18.288 41.2409 18.288C42.3929 18.288 43.4489 17.976 44.2649 17.376L44.4089 18H46.6409L48.6809 8.328ZM48.3181 16.848C48.1741 17.544 48.6301 18.144 49.3501 18.144C50.0701 18.144 50.8141 17.544 50.9581 16.848C51.1021 16.152 50.6221 15.552 49.9021 15.552C49.1821 15.552 48.4621 16.152 48.3181 16.848ZM59.8123 6.456C60.8683 6.456 61.6363 7.032 61.4923 7.68L61.3483 8.4H64.6123L64.7563 7.68C65.1883 5.592 63.1723 4.224 60.2923 4.224C57.4123 4.224 54.7963 5.52 54.3403 7.68L52.8043 14.88C52.3963 16.776 54.4123 18.336 57.2923 18.336C60.1723 18.336 62.8123 16.776 63.2203 14.88L63.4363 13.824L60.0283 14.52L59.9563 14.88C59.8123 15.552 58.8043 16.104 57.7483 16.104C56.6203 16.104 55.9003 15.552 56.0443 14.88L57.5803 7.68C57.7243 7.032 58.6843 6.456 59.8123 6.456ZM76.6396 7.68C77.0476 5.784 75.4156 4.224 72.5836 4.224C70.2076 4.224 68.1916 5.232 67.3036 6.192L69.8716 7.44C70.3516 6.792 71.0956 6.456 72.1036 6.456C73.1356 6.456 73.5436 7.032 73.3996 7.68L73.2796 8.256C72.6556 8.592 71.9356 8.928 71.1916 9.24C68.5756 10.368 65.3356 11.76 64.6396 14.952C64.2076 16.992 66.3436 18.192 68.5996 18.192C70.0876 18.192 71.1676 17.808 71.8156 17.352L72.2476 18.024H74.4316L76.6396 7.68ZM71.9356 14.544C71.7916 15.264 70.7116 15.96 69.6556 15.96C68.5276 15.96 67.7836 15.408 67.9276 14.736C68.3356 12.84 71.0716 11.664 72.6796 11.016L71.9356 14.544ZM94.7624 7.848C95.1704 5.928 93.3944 4.392 90.5144 4.392C88.7864 4.392 87.7304 4.752 86.9384 5.544C86.1704 4.776 85.2344 4.392 83.7704 4.392C82.6904 4.392 82.0424 4.584 81.3944 5.04L80.9384 4.512H78.7544L75.8984 18.024H79.1384L81.2984 7.848C81.4424 7.176 82.2104 6.624 83.2904 6.624C84.3464 6.624 84.9224 7.176 84.7784 7.848L82.6184 18.024H85.8584L88.0184 7.848C88.1624 7.176 88.9064 6.624 90.0344 6.624C91.0904 6.624 91.6424 7.176 91.4984 7.848L89.3384 18.024H92.6024L94.7624 7.848ZM106.615 7.872C107.023 5.976 105.031 4.416 102.151 4.416C101.719 4.416 101.191 4.488 100.663 4.632C100.159 4.776 99.8225 4.872 99.5585 5.088L99.1025 4.536H96.9185L93.2705 21.768H96.4865L97.3025 17.928C97.6625 18.216 98.3105 18.384 99.1745 18.384C102.055 18.384 104.719 16.824 105.127 14.904L106.615 7.872ZM101.863 14.904C101.719 15.6 100.711 16.128 99.6545 16.128C98.5265 16.128 97.8065 15.6 97.9505 14.904L99.4385 7.872C99.5825 7.224 100.543 6.648 101.671 6.648C102.727 6.648 103.495 7.224 103.351 7.872L101.863 14.904Z" fill="url(#paint0_linear)"/>
<defs>
<linearGradient id="paint0_linear" x1="96.4181" y1="-14.5" x2="-5.31939" y2="-0.610726" gradientUnits="userSpaceOnUse">
<stop stop-color="#49A0EB"/>
<stop offset="1" stop-color="#0D3344"/>
</linearGradient>
</defs>
</svg>
