<svg width="178" height="37" viewBox="0 0 178 37" fill="none" xmlns="http://www.w3.org/2000/svg">
<path d="M21.7369 13.08C22.4169 9.88 18.8969 7.32 14.0569 7.32C12.2569 7.32 10.5369 7.64 9.45688 8.4L8.69688 7.52H5.05688L0.296875 30.04H5.65688L9.25688 13.08C9.49688 11.96 11.4569 11.04 13.2569 11.04C15.0169 11.04 16.5769 11.96 16.3369 13.08L12.7369 30.04H18.1369L21.7369 13.08ZM39.0103 23.04L33.3303 24.2L33.2103 24.8C32.9703 25.92 31.4503 26.84 29.6903 26.84C27.8903 26.84 26.8103 25.92 27.0503 24.8L27.2503 23.92C32.0503 22.4 35.2503 21.24 37.5703 19.56C39.6503 17.96 40.8503 16.12 41.4503 13.28C42.2903 9.4 38.9303 7.04 34.1303 7.04C29.3303 7.04 24.8903 9.64 24.2103 12.8L21.6503 24.8C20.9703 27.96 24.1303 30.56 28.9303 30.56C33.7303 30.56 37.9703 27.96 38.6503 24.8L39.0103 23.04ZM35.9703 13.44C35.6503 14.96 35.0903 16.12 33.6903 17.2C32.4503 18.04 30.8903 18.84 28.1303 19.72L29.6103 12.8C29.8503 11.72 31.4503 10.76 33.3303 10.76C35.0903 10.76 36.4103 11.44 35.9703 13.44ZM61.3359 12.8C62.0159 9.64 58.6959 7.04 53.8959 7.04C49.0959 7.04 44.6559 9.64 43.9759 12.8L41.4159 24.8C40.7359 27.96 44.0959 30.56 48.8959 30.56C53.6959 30.56 58.0959 27.96 58.7759 24.8L61.3359 12.8ZM53.3359 24.8C53.0959 25.92 51.4159 26.84 49.6559 26.84C47.7759 26.84 46.5759 25.92 46.8159 24.8L49.3759 12.8C49.6159 11.72 51.2159 10.76 53.0959 10.76C54.8559 10.76 56.1359 11.72 55.8959 12.8L53.3359 24.8ZM81.3016 13.88H71.8616L71.1416 17.36H75.1416L73.5816 24.72C73.3016 25.88 71.4616 26.76 69.7016 26.76C67.9016 26.76 66.3816 25.88 66.6616 24.72L70.5016 6.56C70.7416 5.4 72.3816 4.52 74.1816 4.52C75.9416 4.52 77.2616 5.4 77.0216 6.56L76.7816 7.72H82.1816L82.4216 6.56C83.1016 3.36 79.7816 0.799999 74.9816 0.799999C70.1816 0.799999 65.7416 3.36 65.0616 6.56L61.2216 24.72C60.5416 27.92 64.1416 30.48 68.9016 30.48C70.8216 30.48 72.5816 29.96 73.9416 28.96L74.1816 30H77.9016L81.3016 13.88ZM80.6969 28.08C80.4569 29.24 81.2169 30.24 82.4169 30.24C83.6169 30.24 84.8569 29.24 85.0969 28.08C85.3369 26.92 84.5369 25.92 83.3369 25.92C82.1369 25.92 80.9369 26.92 80.6969 28.08ZM99.8538 10.76C101.614 10.76 102.894 11.72 102.654 12.8L102.414 14H107.854L108.094 12.8C108.814 9.32 105.454 7.04 100.654 7.04C95.8538 7.04 91.4938 9.2 90.7338 12.8L88.1738 24.8C87.4938 27.96 90.8538 30.56 95.6538 30.56C100.454 30.56 104.854 27.96 105.534 24.8L105.894 23.04L100.214 24.2L100.094 24.8C99.8538 25.92 98.1738 26.84 96.4138 26.84C94.5338 26.84 93.3338 25.92 93.5738 24.8L96.1338 12.8C96.3738 11.72 97.9738 10.76 99.8538 10.76ZM127.899 12.8C128.579 9.64 125.859 7.04 121.139 7.04C117.179 7.04 113.819 8.72 112.339 10.32L116.619 12.4C117.419 11.32 118.659 10.76 120.339 10.76C122.059 10.76 122.739 11.72 122.499 12.8L122.299 13.76C121.259 14.32 120.059 14.88 118.819 15.4C114.459 17.28 109.059 19.6 107.899 24.92C107.179 28.32 110.739 30.32 114.499 30.32C116.979 30.32 118.779 29.68 119.859 28.92L120.579 30.04H124.219L127.899 12.8ZM120.059 24.24C119.819 25.44 118.019 26.6 116.259 26.6C114.379 26.6 113.139 25.68 113.379 24.56C114.059 21.4 118.619 19.44 121.299 18.36L120.059 24.24ZM158.104 13.08C158.784 9.88 155.824 7.32 151.024 7.32C148.144 7.32 146.384 7.92 145.064 9.24C143.784 7.96 142.224 7.32 139.784 7.32C137.984 7.32 136.904 7.64 135.824 8.4L135.064 7.52H131.424L126.664 30.04H132.064L135.664 13.08C135.904 11.96 137.184 11.04 138.984 11.04C140.744 11.04 141.704 11.96 141.464 13.08L137.864 30.04H143.264L146.864 13.08C147.104 11.96 148.344 11.04 150.224 11.04C151.984 11.04 152.904 11.96 152.664 13.08L149.064 30.04H154.504L158.104 13.08ZM177.858 13.12C178.538 9.96 175.218 7.36 170.418 7.36C169.698 7.36 168.818 7.48 167.938 7.72C167.098 7.96 166.538 8.12 166.098 8.48L165.338 7.56H161.698L155.618 36.28H160.978L162.338 29.88C162.938 30.36 164.018 30.64 165.458 30.64C170.258 30.64 174.698 28.04 175.378 24.84L177.858 13.12ZM169.938 24.84C169.698 26 168.018 26.88 166.258 26.88C164.378 26.88 163.178 26 163.418 24.84L165.898 13.12C166.138 12.04 167.738 11.08 169.618 11.08C171.378 11.08 172.658 12.04 172.418 13.12L169.938 24.84Z" fill="url(#paint0_linear)"/>
<defs>
<linearGradient id="paint0_linear" x1="9.5" y1="1.6636e-05" x2="186" y2="36" gradientUnits="userSpaceOnUse">
<stop stop-color="#000"/>
<stop offset="1" stop-color="#000"/>
</linearGradient>
</defs>
</svg>
