<svg width="38" height="31" viewBox="0 0 38 31" fill="none" xmlns="http://www.w3.org/2000/svg">
<path d="M12.4164 30.8739C26.1383 30.8739 33.6423 19.3628 33.6423 9.38085C33.6423 9.05393 33.6357 8.7285 33.6212 8.40442C35.0812 7.33469 36.3413 6.01011 37.3425 4.49278C36.0058 5.09448 34.5673 5.49948 33.0585 5.68209C34.5986 4.7468 35.781 3.26752 36.3389 1.50394C34.8744 2.38366 33.2723 3.00378 31.6017 3.33757C30.2404 1.86929 28.3024 0.950928 26.1563 0.950928C22.0365 0.950928 18.6957 4.33389 18.6957 8.50388C18.6957 9.09668 18.7612 9.6733 18.8892 10.2263C12.689 9.91039 7.19103 6.90451 3.51151 2.33384C2.84881 3.48656 2.50021 4.79677 2.50134 6.13058C2.50134 8.75135 3.81838 11.065 5.82116 12.4185C4.6365 12.3819 3.47783 12.0579 2.44253 11.4737C2.44143 11.5054 2.44143 11.5363 2.44143 11.5702C2.44143 15.2285 5.01292 18.283 8.42645 18.9751C7.78533 19.152 7.12378 19.2414 6.4593 19.241C5.98873 19.2407 5.51925 19.1951 5.05721 19.1047C6.00699 22.1062 8.76102 24.2903 12.0262 24.3513C9.47286 26.3778 6.25639 27.5848 2.76062 27.5848C2.15921 27.5848 1.56511 27.5502 0.98114 27.4803C4.28278 29.6232 8.20279 30.8739 12.4164 30.8739Z" fill="white"/>
</svg>
