<svg width="78" height="56" viewBox="0 0 78 56" fill="none" xmlns="http://www.w3.org/2000/svg">
<path d="M31.377 39.7963V16.2259L51.4495 28.0114L31.377 39.7963ZM76.0258 8.80935C75.1425 5.37701 72.5401 2.67391 69.236 1.75655C63.2471 0.0893555 39.2313 0.0893555 39.2313 0.0893555C39.2313 0.0893555 15.2159 0.0893555 9.22697 1.75655C5.92289 2.67391 3.32048 5.37701 2.43719 8.80935C0.832275 15.0306 0.832275 28.0111 0.832275 28.0111C0.832275 28.0111 0.832275 40.9909 2.43719 47.2125C3.32048 50.6452 5.92257 53.348 9.22697 54.266C15.2159 55.9325 39.2313 55.9325 39.2313 55.9325C39.2313 55.9325 63.2471 55.9325 69.236 54.266C72.5401 53.348 75.1425 50.6452 76.0258 47.2125C77.6307 40.9909 77.6307 28.0108 77.6307 28.0108C77.6307 28.0108 77.6307 15.0306 76.0258 8.80935Z" fill="white"/>
</svg>
